<?xml version="1.0" encoding="UTF-8" standalone="no"?>
<!-- Generator: Adobe Illustrator 25.4.1, SVG Export Plug-In . SVG Version: 6.00 Build 0)  -->

<svg
   version="1.1"
   id="Layer_1"
   x="0px"
   y="0px"
   viewBox="0 0 258 84.5"
   style="enable-background:new 0 0 258 84.5;"
   xml:space="preserve"
   sodipodi:docname="IdeagenLogo.svg"
   inkscape:version="1.3.2 (091e20e, 2023-11-25)"
   xmlns:inkscape="http://www.inkscape.org/namespaces/inkscape"
   xmlns:sodipodi="http://sodipodi.sourceforge.net/DTD/sodipodi-0.dtd"
   xmlns="http://www.w3.org/2000/svg"
   xmlns:svg="http://www.w3.org/2000/svg"><defs
   id="defs12">
	
	

		
		
		
	
		
		
		
		
		
		
		
	
			
			
		</defs><sodipodi:namedview
   id="namedview12"
   pagecolor="#505050"
   bordercolor="#eeeeee"
   borderopacity="1"
   inkscape:showpageshadow="0"
   inkscape:pageopacity="0"
   inkscape:pagecheckerboard="0"
   inkscape:deskcolor="#d1d1d1"
   inkscape:zoom="3.2790698"
   inkscape:cx="129"
   inkscape:cy="42.390071"
   inkscape:window-width="1408"
   inkscape:window-height="1170"
   inkscape:window-x="219"
   inkscape:window-y="25"
   inkscape:window-maximized="0"
   inkscape:current-layer="Layer_1" />
<style
   type="text/css"
   id="style1">
	.st0{fill:#45BBCE;}
	.st1{fill:#039DB7;}
	.st2{fill:#E2408E;}
	.st3{fill:#6496c8;}
	.st4{fill:#FFFFFF;}
</style>
<polygon
   class="st0"
   points="234,36.2 246,28.9 234,21.7 221.8,28.9 221.8,36.2 222.4,36.2 222.4,29.3 "
   id="polygon1" /><polygon
   class="st1"
   points="234,36.2 234,50.7 246,43.4 246,28.9 "
   id="polygon2" /><polygon
   class="st2"
   points="246,0 233.9,7.2 233.9,14.4 234.4,14.4 234.4,7.6 246,14.5 258,7.2 "
   id="polygon3" /><polygon
   class="st3"
   points="258,21.7 258,7.2 246,14.5 246,28.9 "
   id="polygon4" /><path
   class="st4"
   d="M 6,25.4 V 70.7 H 0 V 25.4 Z"
   id="path5" /><path
   class="st4"
   d="m 44.4,25.4 v 45.3 h -5.6 v -5.6 c -2.6,3.9 -6.7,6.4 -12.2,6.4 -9,0 -16.4,-7.4 -16.4,-17 0,-9.6 7.4,-17 16.4,-17 5.5,0 9.7,2.5 12.2,6.4 V 25.4 Z m -5.7,29.1 c 0,-6.6 -5,-11.6 -11.5,-11.6 -6.5,0 -11.5,5 -11.5,11.6 0,6.6 5,11.6 11.5,11.6 6.5,0 11.5,-5 11.5,-11.6 z"
   id="path6" /><path
   class="st4"
   d="m 65.3,66.3 c 4.5,0 7.7,-2.1 9.3,-4.7 l 4.8,2.7 c -2.8,4.4 -7.8,7.3 -14.2,7.3 -10.4,0 -17.4,-7.3 -17.4,-17 0,-9.6 6.9,-17 17,-17 9.8,0 16.1,8 16.1,17.1 0,0.8 -0.1,1.7 -0.2,2.5 H 53.6 c 1.1,5.8 5.7,9.1 11.7,9.1 z M 53.6,52.2 h 21.6 c -1,-6.4 -5.6,-9.4 -10.4,-9.4 -6,0 -10.3,3.8 -11.2,9.4 z"
   id="path7" /><path
   class="st4"
   d="M 116.6,38.3 V 70.7 H 111 v -5.6 c -2.6,3.9 -6.7,6.4 -12.2,6.4 -9,0 -16.4,-7.4 -16.4,-17 0,-9.6 7.4,-17 16.4,-17 5.5,0 9.7,2.5 12.2,6.4 v -5.6 z m -5.7,16.2 c 0,-6.6 -5,-11.6 -11.5,-11.6 -6.5,0 -11.5,5 -11.5,11.6 0,6.6 5,11.6 11.5,11.6 6.6,0 11.5,-5 11.5,-11.6 z"
   id="path8" /><path
   class="st4"
   d="m 154.4,38.3 v 31 c 0,10.1 -8.1,15.2 -16.5,15.2 -7.2,0 -12.7,-2.8 -15.3,-7.9 l 4.9,-2.8 c 1.5,3 4.2,5.4 10.6,5.4 6.7,0 10.8,-3.8 10.8,-9.9 v -4.6 c -2.6,3.9 -6.7,6.5 -12.2,6.5 -9.2,0 -16.5,-7.4 -16.5,-16.9 0,-9.4 7.3,-16.8 16.5,-16.8 5.4,0 9.6,2.5 12.2,6.4 v -5.6 z m -5.6,16 c 0,-6.5 -5,-11.5 -11.5,-11.5 -6.5,0 -11.5,5 -11.5,11.5 0,6.5 5,11.5 11.5,11.5 6.5,0.1 11.5,-4.9 11.5,-11.5 z"
   id="path9" /><path
   class="st4"
   d="m 175.3,66.3 c 4.5,0 7.7,-2.1 9.3,-4.7 l 4.8,2.7 c -2.9,4.4 -7.8,7.3 -14.2,7.3 -10.4,0 -17.4,-7.3 -17.4,-17 0,-9.6 6.9,-17 17,-17 9.8,0 16.1,8 16.1,17.1 0,0.8 -0.1,1.7 -0.2,2.5 h -27.1 c 1.1,5.8 5.7,9.1 11.7,9.1 z M 163.6,52.2 h 21.6 c -1,-6.4 -5.6,-9.4 -10.4,-9.4 -6.1,0 -10.3,3.8 -11.2,9.4 z"
   id="path10" /><path
   class="st4"
   d="m 222.9,50.8 v 19.9 h -5.6 V 51.2 c 0,-5.3 -3,-8.3 -8,-8.3 -5.2,0 -9.4,3 -9.4,10.7 v 17.2 h -5.6 V 38.3 h 5.6 V 43 c 2.4,-3.8 6,-5.5 10.5,-5.5 7.5,0 12.5,5 12.5,13.3 z"
   id="path11" />
</svg>

