<svg width="930" height="201" viewBox="0 0 930 201" fill="none" xmlns="http://www.w3.org/2000/svg">
<path d="M929.75 152.64C925.086 152.64 920.705 152.64 916.606 152.64C912.649 152.64 908.268 152.64 903.462 152.64C903.038 152.64 902.614 152.569 902.19 152.428C901.908 152.145 901.625 151.863 901.342 151.58C901.201 151.297 901.13 150.873 901.13 150.308C901.13 141.969 901.13 133.631 901.13 125.292C901.13 116.812 901.13 108.403 901.13 100.064C901.13 91.7254 901.13 83.3867 901.13 75.048C901.13 71.232 900.282 68.4054 898.586 66.568C896.89 64.7307 894.205 63.812 890.53 63.812C888.128 63.812 885.442 64.236 882.474 65.084C879.648 65.7907 876.75 66.9214 873.782 68.476C870.956 69.8894 868.2 71.7267 865.514 73.988C862.829 76.2494 860.356 78.9347 858.094 82.044V57.028H865.514C868.341 52.788 871.45 49.1134 874.842 46.004C878.376 42.8947 882.192 40.492 886.29 38.796C890.53 36.9587 895.053 36.04 899.858 36.04C904.381 36.04 908.48 36.8174 912.154 38.372C915.97 39.7854 919.15 41.976 921.694 44.944C924.38 47.7707 926.358 51.2334 927.63 55.332C929.044 59.4307 929.75 64.024 929.75 69.112C929.75 75.896 929.75 82.7507 929.75 89.676C929.75 96.6014 929.75 103.527 929.75 110.452C929.75 117.377 929.75 124.373 929.75 131.44C929.75 134.973 929.75 138.507 929.75 142.04C929.75 145.573 929.75 149.107 929.75 152.64ZM861.486 152.64C858.377 152.64 855.409 152.64 852.582 152.64C849.897 152.64 847.07 152.64 844.102 152.64C841.276 152.64 838.308 152.64 835.198 152.64C834.774 152.64 834.421 152.64 834.138 152.64C833.856 152.499 833.573 152.357 833.29 152.216C833.149 151.933 833.008 151.651 832.866 151.368C832.866 151.085 832.866 150.732 832.866 150.308C832.866 142.676 832.866 135.115 832.866 127.624C832.866 119.992 832.866 112.431 832.866 104.94C832.866 97.308 832.866 89.7467 832.866 82.256C832.866 74.624 832.866 66.992 832.866 59.36C832.866 55.4027 832.866 51.6574 832.866 48.124C832.866 44.5907 832.866 41.4107 832.866 38.584C836.4 38.584 839.58 38.584 842.406 38.584C845.374 38.584 848.201 38.584 850.886 38.584C853.713 38.584 856.469 38.584 859.154 38.584C859.72 38.584 860.144 38.7254 860.426 39.008C860.709 39.1494 860.921 39.3614 861.062 39.644C861.345 39.9267 861.486 40.3507 861.486 40.916C861.486 53.212 861.486 65.5787 861.486 78.016C861.486 90.4534 861.486 102.891 861.486 115.328C861.486 127.765 861.486 140.203 861.486 152.64Z" fill="#122933"/>
<path d="M812.597 80.3484C812.597 83.8817 812.597 87.3444 812.597 90.7364C812.597 93.987 812.597 97.379 812.597 100.912C812.597 104.304 812.597 107.767 812.597 111.3C812.597 114.692 812.597 118.014 812.597 121.264C812.597 122.395 812.667 123.384 812.809 124.232C813.091 125.08 813.515 125.787 814.081 126.352C814.505 126.776 815.07 127.13 815.777 127.412C816.625 127.554 817.543 127.624 818.533 127.624C818.957 127.624 819.31 127.624 819.593 127.624C820.017 127.624 820.441 127.624 820.865 127.624H824.893C824.893 131.44 824.893 135.256 824.893 139.072C824.893 142.747 824.893 146.492 824.893 150.308C824.893 151.015 824.681 151.58 824.257 152.004C823.833 152.428 823.267 152.64 822.561 152.64C821.854 152.64 820.087 152.64 817.261 152.64C814.575 152.64 812.173 152.64 810.053 152.64C806.095 152.64 802.562 152.004 799.453 150.732C796.343 149.46 793.587 147.694 791.185 145.432C788.782 143.03 786.945 140.203 785.673 136.952C784.401 133.702 783.765 130.027 783.765 125.928C783.765 121.547 783.765 117.095 783.765 112.572C783.765 108.05 783.765 103.598 783.765 99.2164C783.765 96.8137 783.765 94.5524 783.765 92.4324C783.765 90.171 783.765 87.9097 783.765 85.6484C783.765 83.387 783.765 81.1257 783.765 78.8644C783.765 74.7657 783.058 71.5857 781.645 69.3244C780.231 66.9217 777.899 65.2257 774.649 64.2364C771.539 63.247 767.299 62.7524 761.929 62.7524C757.971 62.7524 754.085 62.9644 750.269 63.3884C746.594 63.8124 742.919 64.3777 739.245 65.0844C735.711 65.791 732.107 66.7804 728.433 68.0524H724.405C724.405 64.2364 724.405 60.4204 724.405 56.6044C724.405 52.7884 724.405 49.043 724.405 45.3684C724.405 44.803 724.475 44.379 724.617 44.0964C724.758 43.8137 724.899 43.6017 725.041 43.4604C725.889 42.6124 728.221 41.623 732.037 40.4924C735.994 39.3617 740.658 38.443 746.029 37.7364C751.399 36.8884 756.699 36.4644 761.929 36.4644C770.833 36.4644 778.465 37.3124 784.825 39.0084C791.185 40.563 796.414 43.107 800.513 46.6404C804.611 50.1737 807.65 54.767 809.629 60.4204C811.607 65.9324 812.597 72.575 812.597 80.3484ZM744.757 120.416C744.757 123.384 745.534 125.646 747.089 127.2C748.785 128.614 751.329 129.32 754.721 129.32C758.537 129.32 762.282 128.896 765.957 128.048C769.631 127.2 773.235 125.787 776.769 123.808C780.443 121.83 784.118 119.286 787.793 116.176V134.408H781.433C779.595 138.648 776.981 142.323 773.589 145.432C770.338 148.4 766.522 150.732 762.141 152.428C757.759 153.983 752.954 154.76 747.725 154.76C741.223 154.76 735.57 153.488 730.765 150.944C726.101 148.4 722.497 144.867 719.953 140.344C717.409 135.68 716.137 130.31 716.137 124.232V116.812C716.137 112.148 716.914 107.979 718.469 104.304C720.023 100.63 722.214 97.4497 725.041 94.7644C728.009 92.079 731.542 90.0297 735.641 88.6164C739.739 87.0617 744.333 86.2844 749.421 86.2844C754.367 86.2844 759.173 86.2844 763.837 86.2844C768.642 86.2844 773.165 86.2844 777.405 86.2844C781.786 86.2844 785.885 86.2844 789.701 86.2844C790.973 86.2844 791.891 87.415 792.457 89.6764C793.163 91.9377 793.587 94.4817 793.729 97.3084C793.87 99.9937 793.941 102.255 793.941 104.092C789.418 104.092 785.037 104.092 780.797 104.092C776.557 104.092 772.246 104.092 767.865 104.092C763.625 104.092 759.243 104.092 754.721 104.092C753.025 104.092 751.541 104.304 750.269 104.728C749.138 105.152 748.149 105.788 747.301 106.636C746.594 107.484 745.958 108.474 745.393 109.604C744.969 110.594 744.757 111.724 744.757 112.996V120.416Z" fill="#122933"/>
<path d="M656.224 36.04C665.835 36.04 674.174 38.0187 681.24 41.976C688.448 45.9334 694.031 51.4454 697.988 58.512C701.946 65.5787 703.924 73.8467 703.924 83.316V100.912C703.924 101.336 703.854 101.76 703.712 102.184C703.571 102.467 703.288 102.679 702.864 102.82C702.582 102.961 702.228 103.032 701.804 103.032H653.044C650.642 103.032 648.168 103.032 645.624 103.032C643.222 103.032 640.819 103.032 638.416 103.032H629.724L629.088 85.224H676.152C676.152 84.6587 676.152 84.164 676.152 83.74C676.152 83.316 676.152 82.8214 676.152 82.256C676.152 78.1574 675.728 74.6947 674.88 71.868C674.032 68.9 672.69 66.568 670.852 64.872C669.298 63.176 667.319 61.9747 664.916 61.268C662.514 60.5614 659.616 60.208 656.224 60.208C649.158 60.208 643.858 61.9747 640.324 65.508C636.932 68.9 635.236 74.4827 635.236 82.256V108.12C635.236 110.381 635.448 112.501 635.872 114.48C636.296 116.459 636.862 118.225 637.568 119.78C638.275 121.335 639.264 122.677 640.536 123.808C642.798 126.069 645.766 127.695 649.44 128.684C653.256 129.673 657.638 130.168 662.584 130.168C667.672 130.168 672.124 129.885 675.94 129.32C679.898 128.755 683.643 128.048 687.176 127.2C690.71 126.352 694.031 125.292 697.14 124.02H701.168C701.168 127.695 701.168 131.369 701.168 135.044C701.168 138.577 701.168 142.181 701.168 145.856C701.168 146.139 701.098 146.421 700.956 146.704C700.815 146.987 700.603 147.269 700.32 147.552C699.19 148.824 696.646 150.025 692.688 151.156C688.731 152.287 684.067 153.205 678.696 153.912C673.326 154.76 667.884 155.184 662.372 155.184C653.044 155.184 644.847 154.124 637.78 152.004C630.714 149.743 624.919 146.563 620.396 142.464C615.874 138.365 612.411 133.419 610.008 127.624C607.747 121.688 606.616 115.045 606.616 107.696V83.528C606.616 76.32 607.747 69.8187 610.008 64.024C612.411 58.2294 615.803 53.2827 620.184 49.184C624.566 44.944 629.795 41.6934 635.872 39.432C641.95 37.1707 648.734 36.04 656.224 36.04Z" fill="#122933"/>
<path d="M558.704 36.04C563.934 36.04 568.527 36.3934 572.484 37.1C576.442 37.6654 579.622 38.4427 582.024 39.432C584.568 40.28 586.264 41.128 587.112 41.976C587.395 42.1174 587.536 42.4 587.536 42.824C587.678 43.1067 587.748 43.46 587.748 43.884C587.748 47.8414 587.748 51.8694 587.748 55.968C587.748 60.0667 587.748 64.1654 587.748 68.264H583.72C579.904 66.568 575.947 65.296 571.848 64.448C567.75 63.6 563.298 63.176 558.492 63.176C553.828 63.176 549.659 64.0947 545.984 65.932C542.31 67.628 539.483 70.384 537.504 74.2C535.526 78.016 534.536 82.9627 534.536 89.04V102.396C534.536 106.919 535.102 110.876 536.232 114.268C537.363 117.519 539.13 120.204 541.532 122.324C543.511 124.303 545.914 125.787 548.74 126.776C551.567 127.624 554.818 128.048 558.492 128.048C561.743 128.048 564.782 127.907 567.608 127.624C570.435 127.2 573.191 126.635 575.876 125.928C578.562 125.221 581.176 124.303 583.72 123.172H587.748C587.748 127.271 587.748 131.369 587.748 135.468C587.748 139.567 587.748 143.665 587.748 147.764C587.748 148.047 587.678 148.329 587.536 148.612C587.536 148.895 587.395 149.177 587.112 149.46C586.406 150.167 584.78 151.015 582.236 152.004C579.834 152.852 576.583 153.559 572.484 154.124C568.527 154.831 563.934 155.184 558.704 155.184C550.224 155.184 542.663 154.053 536.02 151.792C529.378 149.531 523.724 146.209 519.06 141.828C514.396 137.305 510.863 131.864 508.46 125.504C506.058 119.144 504.856 111.936 504.856 103.88V88.616C504.856 78.1574 507.118 69.0414 511.64 61.268C516.163 53.3534 522.452 47.2054 530.508 42.824C538.564 38.3014 547.963 36.04 558.704 36.04Z" fill="#122933"/>
<path d="M429.937 0C440.537 0 450.077 2.26133 458.557 6.784C467.178 11.1653 473.962 17.7373 478.909 26.5C483.997 35.2627 486.541 46.216 486.541 59.36V99.852C486.541 112.007 484.068 122.324 479.121 130.804C474.174 139.284 467.461 145.785 458.981 150.308C450.501 154.689 440.82 156.88 429.937 156.88C419.337 156.88 409.726 154.689 401.105 150.308C392.625 145.785 385.841 139.284 380.753 130.804C375.806 122.324 373.333 112.007 373.333 99.852V59.36C373.333 46.216 375.948 35.2627 381.177 26.5C386.406 17.7373 393.332 11.1653 401.953 6.784C410.716 2.26133 420.044 0 429.937 0ZM401.953 97.944C401.953 106 402.942 112.007 404.921 115.964C406.9 119.921 408.949 122.819 411.069 124.656C413.189 126.352 415.874 127.765 419.125 128.896C422.517 130.027 426.404 130.592 430.785 130.592C436.156 130.592 440.82 129.391 444.777 126.988C448.734 124.585 451.914 120.911 454.317 115.964C456.72 111.017 457.921 104.94 457.921 97.732V57.028C457.921 52.5053 457.638 48.76 457.073 45.792C456.508 42.6827 455.66 40.068 454.529 37.948C453.398 35.828 451.985 33.9907 450.289 32.436C448.169 30.316 445.484 28.6907 442.233 27.56C438.982 26.4293 435.025 25.864 430.361 25.864C423.86 25.864 418.489 27.136 414.249 29.68C410.15 32.224 407.041 35.828 404.921 40.492C402.942 45.156 401.953 50.668 401.953 57.028V97.944Z" fill="#122933"/>
<path d="M304.304 36.04C313.915 36.04 322.254 38.0187 329.32 41.976C336.528 45.9334 342.111 51.4454 346.068 58.512C350.026 65.5787 352.004 73.8467 352.004 83.316V100.912C352.004 101.336 351.934 101.76 351.792 102.184C351.651 102.467 351.368 102.679 350.944 102.82C350.662 102.961 350.308 103.032 349.884 103.032H301.124C298.722 103.032 296.248 103.032 293.704 103.032C291.302 103.032 288.899 103.032 286.496 103.032H277.804L277.168 85.224H324.232C324.232 84.6587 324.232 84.164 324.232 83.74C324.232 83.316 324.232 82.8214 324.232 82.256C324.232 78.1574 323.808 74.6947 322.96 71.868C322.112 68.9 320.77 66.568 318.932 64.872C317.378 63.176 315.399 61.9747 312.996 61.268C310.594 60.5614 307.696 60.208 304.304 60.208C297.238 60.208 291.938 61.9747 288.404 65.508C285.012 68.9 283.316 74.4827 283.316 82.256V108.12C283.316 110.381 283.528 112.501 283.952 114.48C284.376 116.459 284.942 118.225 285.648 119.78C286.355 121.335 287.344 122.677 288.616 123.808C290.878 126.069 293.846 127.695 297.52 128.684C301.336 129.673 305.718 130.168 310.664 130.168C315.752 130.168 320.204 129.885 324.02 129.32C327.978 128.755 331.723 128.048 335.256 127.2C338.79 126.352 342.111 125.292 345.22 124.02H349.248C349.248 127.695 349.248 131.369 349.248 135.044C349.248 138.577 349.248 142.181 349.248 145.856C349.248 146.139 349.178 146.421 349.036 146.704C348.895 146.987 348.683 147.269 348.4 147.552C347.27 148.824 344.726 150.025 340.768 151.156C336.811 152.287 332.147 153.205 326.776 153.912C321.406 154.76 315.964 155.184 310.452 155.184C301.124 155.184 292.927 154.124 285.86 152.004C278.794 149.743 272.999 146.563 268.476 142.464C263.954 138.365 260.491 133.419 258.088 127.624C255.827 121.688 254.696 115.045 254.696 107.696V83.528C254.696 76.32 255.827 69.8187 258.088 64.024C260.491 58.2294 263.883 53.2827 268.264 49.184C272.646 44.944 277.875 41.6934 283.952 39.432C290.03 37.1707 296.814 36.04 304.304 36.04Z" fill="#122933"/>
<path d="M232.519 152.64C227.855 152.64 223.473 152.64 219.375 152.64C215.417 152.64 211.036 152.64 206.231 152.64C205.807 152.64 205.383 152.569 204.959 152.428C204.676 152.145 204.393 151.863 204.111 151.58C203.969 151.297 203.899 150.873 203.899 150.308C203.899 141.969 203.899 133.631 203.899 125.292C203.899 116.812 203.899 108.403 203.899 100.064C203.899 91.7254 203.899 83.3867 203.899 75.048C203.899 71.232 203.051 68.4054 201.355 66.568C199.659 64.7307 196.973 63.812 193.299 63.812C190.896 63.812 188.211 64.236 185.243 65.084C182.416 65.7907 179.519 66.9214 176.551 68.476C173.724 69.8894 170.968 71.7267 168.283 73.988C165.597 76.2494 163.124 78.9347 160.863 82.044V57.028H168.283C171.109 52.788 174.219 49.1134 177.611 46.004C181.144 42.8947 184.96 40.492 189.059 38.796C193.299 36.9587 197.821 36.04 202.627 36.04C207.149 36.04 211.248 36.8174 214.923 38.372C218.739 39.7854 221.919 41.976 224.463 44.944C227.148 47.7707 229.127 51.2334 230.399 55.332C231.812 59.4307 232.519 64.024 232.519 69.112C232.519 75.896 232.519 82.7507 232.519 89.676C232.519 96.6014 232.519 103.527 232.519 110.452C232.519 117.377 232.519 124.373 232.519 131.44C232.519 134.973 232.519 138.507 232.519 142.04C232.519 145.573 232.519 149.107 232.519 152.64ZM164.255 152.64C161.145 152.64 158.177 152.64 155.351 152.64C152.665 152.64 149.839 152.64 146.871 152.64C144.044 152.64 141.076 152.64 137.967 152.64C137.543 152.64 137.189 152.64 136.907 152.64C136.624 152.499 136.341 152.357 136.059 152.216C135.917 151.933 135.776 151.651 135.635 151.368C135.635 151.085 135.635 150.732 135.635 150.308C135.635 142.676 135.635 135.115 135.635 127.624C135.635 119.992 135.635 112.431 135.635 104.94C135.635 97.308 135.635 89.7467 135.635 82.256C135.635 74.624 135.635 66.992 135.635 59.36C135.635 55.4027 135.635 51.6574 135.635 48.124C135.635 44.5907 135.635 41.4107 135.635 38.584C139.168 38.584 142.348 38.584 145.175 38.584C148.143 38.584 150.969 38.584 153.655 38.584C156.481 38.584 159.237 38.584 161.923 38.584C162.488 38.584 162.912 38.7254 163.195 39.008C163.477 39.1494 163.689 39.3614 163.831 39.644C164.113 39.9267 164.255 40.3507 164.255 40.916C164.255 53.212 164.255 65.5787 164.255 78.016C164.255 90.4534 164.255 102.891 164.255 115.328C164.255 127.765 164.255 140.203 164.255 152.64Z" fill="#122933"/>
<path d="M56.8999 0C67.4999 0 77.0399 2.26133 85.5199 6.784C94.1412 11.1653 100.925 17.7373 105.872 26.5C110.96 35.2627 113.504 46.216 113.504 59.36V99.852C113.504 112.007 111.031 122.324 106.084 130.804C101.137 139.284 94.4239 145.785 85.9439 150.308C77.4639 154.689 67.7826 156.88 56.8999 156.88C46.2999 156.88 36.6892 154.689 28.0679 150.308C19.5879 145.785 12.8039 139.284 7.7159 130.804C2.76923 122.324 0.295898 112.007 0.295898 99.852V59.36C0.295898 46.216 2.91057 35.2627 8.1399 26.5C13.3692 17.7373 20.2946 11.1653 28.9159 6.784C37.6786 2.26133 47.0066 0 56.8999 0ZM28.9159 97.944C28.9159 106 29.9052 112.007 31.8839 115.964C33.8626 119.921 35.9119 122.819 38.0319 124.656C40.1519 126.352 42.8372 127.765 46.0879 128.896C49.4799 130.027 53.3666 130.592 57.7479 130.592C63.1186 130.592 67.7826 129.391 71.7399 126.988C75.6972 124.585 78.8772 120.911 81.2799 115.964C83.6826 111.017 84.8839 104.94 84.8839 97.732V57.028C84.8839 52.5053 84.6012 48.76 84.0359 45.792C83.4706 42.6827 82.6226 40.068 81.4919 37.948C80.3612 35.828 78.9479 33.9907 77.2519 32.436C75.1319 30.316 72.4466 28.6907 69.1959 27.56C65.9452 26.4293 61.9879 25.864 57.3239 25.864C50.8226 25.864 45.4519 27.136 41.2119 29.68C37.1132 32.224 34.0039 35.828 31.8839 40.492C29.9052 45.156 28.9159 50.668 28.9159 57.028V97.944Z" fill="#122933"/>
<rect y="183.64" width="352" height="17" rx="1" fill="#00ECEA"/>
</svg>
