<svg width="930" height="201" viewBox="0 0 930 201" fill="none" xmlns="http://www.w3.org/2000/svg">
<path d="M929.454 152.64C924.79 152.64 920.409 152.64 916.31 152.64C912.353 152.64 907.972 152.64 903.166 152.64C902.742 152.64 902.318 152.569 901.894 152.428C901.612 152.145 901.329 151.863 901.046 151.58C900.905 151.297 900.834 150.873 900.834 150.308C900.834 141.969 900.834 133.631 900.834 125.292C900.834 116.812 900.834 108.403 900.834 100.064C900.834 91.7254 900.834 83.3867 900.834 75.048C900.834 71.232 899.986 68.4054 898.29 66.568C896.594 64.7307 893.909 63.812 890.234 63.812C887.832 63.812 885.146 64.236 882.178 65.084C879.352 65.7907 876.454 66.9214 873.486 68.476C870.66 69.8894 867.904 71.7267 865.218 73.988C862.533 76.2494 860.06 78.9347 857.798 82.044V57.028H865.218C868.045 52.788 871.154 49.1134 874.546 46.004C878.08 42.8947 881.896 40.492 885.994 38.796C890.234 36.9587 894.757 36.04 899.562 36.04C904.085 36.04 908.184 36.8174 911.858 38.372C915.674 39.7854 918.854 41.976 921.398 44.944C924.084 47.7707 926.062 51.2334 927.334 55.332C928.748 59.4307 929.454 64.024 929.454 69.112C929.454 75.896 929.454 82.7507 929.454 89.676C929.454 96.6014 929.454 103.527 929.454 110.452C929.454 117.377 929.454 124.373 929.454 131.44C929.454 134.973 929.454 138.507 929.454 142.04C929.454 145.573 929.454 149.107 929.454 152.64ZM861.19 152.64C858.081 152.64 855.113 152.64 852.286 152.64C849.601 152.64 846.774 152.64 843.806 152.64C840.98 152.64 838.012 152.64 834.902 152.64C834.478 152.64 834.125 152.64 833.842 152.64C833.56 152.499 833.277 152.357 832.994 152.216C832.853 151.933 832.712 151.651 832.57 151.368C832.57 151.085 832.57 150.732 832.57 150.308C832.57 142.676 832.57 135.115 832.57 127.624C832.57 119.992 832.57 112.431 832.57 104.94C832.57 97.308 832.57 89.7467 832.57 82.256C832.57 74.624 832.57 66.992 832.57 59.36C832.57 55.4027 832.57 51.6574 832.57 48.124C832.57 44.5907 832.57 41.4107 832.57 38.584C836.104 38.584 839.284 38.584 842.11 38.584C845.078 38.584 847.905 38.584 850.59 38.584C853.417 38.584 856.173 38.584 858.858 38.584C859.424 38.584 859.848 38.7254 860.13 39.008C860.413 39.1494 860.625 39.3614 860.766 39.644C861.049 39.9267 861.19 40.3507 861.19 40.916C861.19 53.212 861.19 65.5787 861.19 78.016C861.19 90.4534 861.19 102.891 861.19 115.328C861.19 127.765 861.19 140.203 861.19 152.64Z" fill="white"/>
<path d="M812.301 80.3484C812.301 83.8817 812.301 87.3444 812.301 90.7364C812.301 93.987 812.301 97.379 812.301 100.912C812.301 104.304 812.301 107.767 812.301 111.3C812.301 114.692 812.301 118.014 812.301 121.264C812.301 122.395 812.372 123.384 812.513 124.232C812.796 125.08 813.22 125.787 813.785 126.352C814.209 126.776 814.774 127.13 815.481 127.412C816.329 127.554 817.248 127.624 818.237 127.624C818.661 127.624 819.014 127.624 819.297 127.624C819.721 127.624 820.145 127.624 820.569 127.624H824.597C824.597 131.44 824.597 135.256 824.597 139.072C824.597 142.747 824.597 146.492 824.597 150.308C824.597 151.015 824.385 151.58 823.961 152.004C823.537 152.428 822.971 152.64 822.265 152.64C821.558 152.64 819.792 152.64 816.965 152.64C814.28 152.64 811.877 152.64 809.757 152.64C805.8 152.64 802.266 152.004 799.157 150.732C796.048 149.46 793.292 147.694 790.889 145.432C788.486 143.03 786.649 140.203 785.377 136.952C784.105 133.702 783.469 130.027 783.469 125.928C783.469 121.547 783.469 117.095 783.469 112.572C783.469 108.05 783.469 103.598 783.469 99.2164C783.469 96.8137 783.469 94.5524 783.469 92.4324C783.469 90.171 783.469 87.9097 783.469 85.6484C783.469 83.387 783.469 81.1257 783.469 78.8644C783.469 74.7657 782.762 71.5857 781.349 69.3244C779.936 66.9217 777.604 65.2257 774.353 64.2364C771.244 63.247 767.004 62.7524 761.633 62.7524C757.676 62.7524 753.789 62.9644 749.973 63.3884C746.298 63.8124 742.624 64.3777 738.949 65.0844C735.416 65.791 731.812 66.7804 728.137 68.0524H724.109C724.109 64.2364 724.109 60.4204 724.109 56.6044C724.109 52.7884 724.109 49.043 724.109 45.3684C724.109 44.803 724.18 44.379 724.321 44.0964C724.462 43.8137 724.604 43.6017 724.745 43.4604C725.593 42.6124 727.925 41.623 731.741 40.4924C735.698 39.3617 740.362 38.443 745.733 37.7364C751.104 36.8884 756.404 36.4644 761.633 36.4644C770.537 36.4644 778.169 37.3124 784.529 39.0084C790.889 40.563 796.118 43.107 800.217 46.6404C804.316 50.1737 807.354 54.767 809.333 60.4204C811.311 65.9324 812.301 72.575 812.301 80.3484ZM744.461 120.416C744.461 123.384 745.238 125.646 746.793 127.2C748.489 128.614 751.033 129.32 754.425 129.32C758.241 129.32 761.986 128.896 765.661 128.048C769.335 127.2 772.94 125.787 776.473 123.808C780.148 121.83 783.822 119.286 787.497 116.176V134.408H781.137C779.3 138.648 776.685 142.323 773.293 145.432C770.042 148.4 766.226 150.732 761.845 152.428C757.464 153.983 752.658 154.76 747.429 154.76C740.927 154.76 735.274 153.488 730.469 150.944C725.805 148.4 722.201 144.867 719.657 140.344C717.113 135.68 715.841 130.31 715.841 124.232V116.812C715.841 112.148 716.618 107.979 718.173 104.304C719.728 100.63 721.918 97.4497 724.745 94.7644C727.713 92.079 731.246 90.0297 735.345 88.6164C739.444 87.0617 744.037 86.2844 749.125 86.2844C754.072 86.2844 758.877 86.2844 763.541 86.2844C768.346 86.2844 772.869 86.2844 777.109 86.2844C781.49 86.2844 785.589 86.2844 789.405 86.2844C790.677 86.2844 791.595 87.415 792.161 89.6764C792.867 91.9377 793.292 94.4817 793.433 97.3084C793.574 99.9937 793.645 102.255 793.645 104.092C789.122 104.092 784.741 104.092 780.501 104.092C776.261 104.092 771.95 104.092 767.569 104.092C763.329 104.092 758.948 104.092 754.425 104.092C752.729 104.092 751.245 104.304 749.973 104.728C748.842 105.152 747.853 105.788 747.005 106.636C746.298 107.484 745.662 108.474 745.097 109.604C744.673 110.594 744.461 111.724 744.461 112.996V120.416Z" fill="white"/>
<path d="M655.928 36.04C665.539 36.04 673.878 38.0187 680.944 41.976C688.152 45.9334 693.735 51.4454 697.692 58.512C701.65 65.5787 703.628 73.8467 703.628 83.316V100.912C703.628 101.336 703.558 101.76 703.416 102.184C703.275 102.467 702.992 102.679 702.568 102.82C702.286 102.961 701.932 103.032 701.508 103.032H652.748C650.346 103.032 647.872 103.032 645.328 103.032C642.926 103.032 640.523 103.032 638.12 103.032H629.428L628.792 85.224H675.856C675.856 84.6587 675.856 84.164 675.856 83.74C675.856 83.316 675.856 82.8214 675.856 82.256C675.856 78.1574 675.432 74.6947 674.584 71.868C673.736 68.9 672.394 66.568 670.556 64.872C669.002 63.176 667.023 61.9747 664.62 61.268C662.218 60.5614 659.32 60.208 655.928 60.208C648.862 60.208 643.562 61.9747 640.028 65.508C636.636 68.9 634.94 74.4827 634.94 82.256V108.12C634.94 110.381 635.152 112.501 635.576 114.48C636 116.459 636.566 118.225 637.272 119.78C637.979 121.335 638.968 122.677 640.24 123.808C642.502 126.069 645.47 127.695 649.144 128.684C652.96 129.673 657.342 130.168 662.288 130.168C667.376 130.168 671.828 129.885 675.644 129.32C679.602 128.755 683.347 128.048 686.88 127.2C690.414 126.352 693.735 125.292 696.844 124.02H700.872C700.872 127.695 700.872 131.369 700.872 135.044C700.872 138.577 700.872 142.181 700.872 145.856C700.872 146.139 700.802 146.421 700.66 146.704C700.519 146.987 700.307 147.269 700.024 147.552C698.894 148.824 696.35 150.025 692.392 151.156C688.435 152.287 683.771 153.205 678.4 153.912C673.03 154.76 667.588 155.184 662.076 155.184C652.748 155.184 644.551 154.124 637.484 152.004C630.418 149.743 624.623 146.563 620.1 142.464C615.578 138.365 612.115 133.419 609.712 127.624C607.451 121.688 606.32 115.045 606.32 107.696V83.528C606.32 76.32 607.451 69.8187 609.712 64.024C612.115 58.2294 615.507 53.2827 619.888 49.184C624.27 44.944 629.499 41.6934 635.576 39.432C641.654 37.1707 648.438 36.04 655.928 36.04Z" fill="white"/>
<path d="M558.409 36.04C563.638 36.04 568.231 36.3934 572.189 37.1C576.146 37.6654 579.326 38.4427 581.729 39.432C584.273 40.28 585.969 41.128 586.817 41.976C587.099 42.1174 587.241 42.4 587.241 42.824C587.382 43.1067 587.453 43.46 587.453 43.884C587.453 47.8414 587.453 51.8694 587.453 55.968C587.453 60.0667 587.453 64.1654 587.453 68.264H583.424C579.609 66.568 575.651 65.296 571.553 64.448C567.454 63.6 563.002 63.176 558.197 63.176C553.533 63.176 549.363 64.0947 545.689 65.932C542.014 67.628 539.187 70.384 537.209 74.2C535.23 78.016 534.241 82.9627 534.241 89.04V102.396C534.241 106.919 534.806 110.876 535.937 114.268C537.067 117.519 538.834 120.204 541.237 122.324C543.215 124.303 545.618 125.787 548.445 126.776C551.271 127.624 554.522 128.048 558.197 128.048C561.447 128.048 564.486 127.907 567.312 127.624C570.139 127.2 572.895 126.635 575.581 125.928C578.266 125.221 580.881 124.303 583.424 123.172H587.453C587.453 127.271 587.453 131.369 587.453 135.468C587.453 139.567 587.453 143.665 587.453 147.764C587.453 148.047 587.382 148.329 587.241 148.612C587.241 148.895 587.099 149.177 586.817 149.46C586.11 150.167 584.485 151.015 581.941 152.004C579.538 152.852 576.287 153.559 572.189 154.124C568.231 154.831 563.638 155.184 558.409 155.184C549.929 155.184 542.367 154.053 535.725 151.792C529.082 149.531 523.429 146.209 518.765 141.828C514.101 137.305 510.567 131.864 508.165 125.504C505.762 119.144 504.561 111.936 504.561 103.88V88.616C504.561 78.1574 506.822 69.0414 511.345 61.268C515.867 53.3534 522.157 47.2054 530.213 42.824C538.269 38.3014 547.667 36.04 558.409 36.04Z" fill="white"/>
<path d="M429.641 0C440.241 0 449.781 2.26133 458.261 6.784C466.882 11.1653 473.666 17.7373 478.613 26.5C483.701 35.2627 486.245 46.216 486.245 59.36V99.852C486.245 112.007 483.772 122.324 478.825 130.804C473.878 139.284 467.165 145.785 458.685 150.308C450.205 154.689 440.524 156.88 429.641 156.88C419.041 156.88 409.43 154.689 400.809 150.308C392.329 145.785 385.545 139.284 380.457 130.804C375.51 122.324 373.037 112.007 373.037 99.852V59.36C373.037 46.216 375.652 35.2627 380.881 26.5C386.11 17.7373 393.036 11.1653 401.657 6.784C410.42 2.26133 419.748 0 429.641 0ZM401.657 97.944C401.657 106 402.646 112.007 404.625 115.964C406.604 119.921 408.653 122.819 410.773 124.656C412.893 126.352 415.578 127.765 418.829 128.896C422.221 130.027 426.108 130.592 430.489 130.592C435.86 130.592 440.524 129.391 444.481 126.988C448.438 124.585 451.618 120.911 454.021 115.964C456.424 111.017 457.625 104.94 457.625 97.732V57.028C457.625 52.5053 457.342 48.76 456.777 45.792C456.212 42.6827 455.364 40.068 454.233 37.948C453.102 35.828 451.689 33.9907 449.993 32.436C447.873 30.316 445.188 28.6907 441.937 27.56C438.686 26.4293 434.729 25.864 430.065 25.864C423.564 25.864 418.193 27.136 413.953 29.68C409.854 32.224 406.745 35.828 404.625 40.492C402.646 45.156 401.657 50.668 401.657 57.028V97.944Z" fill="white"/>
<path d="M304.008 36.04C313.619 36.04 321.958 38.0187 329.024 41.976C336.232 45.9334 341.815 51.4454 345.772 58.512C349.73 65.5787 351.708 73.8467 351.708 83.316V100.912C351.708 101.336 351.638 101.76 351.496 102.184C351.355 102.467 351.072 102.679 350.648 102.82C350.366 102.961 350.012 103.032 349.588 103.032H300.828C298.426 103.032 295.952 103.032 293.408 103.032C291.006 103.032 288.603 103.032 286.2 103.032H277.508L276.872 85.224H323.936C323.936 84.6587 323.936 84.164 323.936 83.74C323.936 83.316 323.936 82.8214 323.936 82.256C323.936 78.1574 323.512 74.6947 322.664 71.868C321.816 68.9 320.474 66.568 318.636 64.872C317.082 63.176 315.103 61.9747 312.7 61.268C310.298 60.5614 307.4 60.208 304.008 60.208C296.942 60.208 291.642 61.9747 288.108 65.508C284.716 68.9 283.02 74.4827 283.02 82.256V108.12C283.02 110.381 283.232 112.501 283.656 114.48C284.08 116.459 284.646 118.225 285.352 119.78C286.059 121.335 287.048 122.677 288.32 123.808C290.582 126.069 293.55 127.695 297.224 128.684C301.04 129.673 305.422 130.168 310.368 130.168C315.456 130.168 319.908 129.885 323.724 129.32C327.682 128.755 331.427 128.048 334.96 127.2C338.494 126.352 341.815 125.292 344.924 124.02H348.952C348.952 127.695 348.952 131.369 348.952 135.044C348.952 138.577 348.952 142.181 348.952 145.856C348.952 146.139 348.882 146.421 348.74 146.704C348.599 146.987 348.387 147.269 348.104 147.552C346.974 148.824 344.43 150.025 340.472 151.156C336.515 152.287 331.851 153.205 326.48 153.912C321.11 154.76 315.668 155.184 310.156 155.184C300.828 155.184 292.631 154.124 285.564 152.004C278.498 149.743 272.703 146.563 268.18 142.464C263.658 138.365 260.195 133.419 257.792 127.624C255.531 121.688 254.4 115.045 254.4 107.696V83.528C254.4 76.32 255.531 69.8187 257.792 64.024C260.195 58.2294 263.587 53.2827 267.968 49.184C272.35 44.944 277.579 41.6934 283.656 39.432C289.734 37.1707 296.518 36.04 304.008 36.04Z" fill="white"/>
<path d="M232.223 152.64C227.559 152.64 223.178 152.64 219.079 152.64C215.122 152.64 210.74 152.64 205.935 152.64C205.511 152.64 205.087 152.569 204.663 152.428C204.38 152.145 204.098 151.863 203.815 151.58C203.674 151.297 203.603 150.873 203.603 150.308C203.603 141.969 203.603 133.631 203.603 125.292C203.603 116.812 203.603 108.403 203.603 100.064C203.603 91.7254 203.603 83.3867 203.603 75.048C203.603 71.232 202.755 68.4054 201.059 66.568C199.363 64.7307 196.678 63.812 193.003 63.812C190.6 63.812 187.915 64.236 184.947 65.084C182.12 65.7907 179.223 66.9214 176.255 68.476C173.428 69.8894 170.672 71.7267 167.987 73.988C165.302 76.2494 162.828 78.9347 160.567 82.044V57.028H167.987C170.814 52.788 173.923 49.1134 177.315 46.004C180.848 42.8947 184.664 40.492 188.763 38.796C193.003 36.9587 197.526 36.04 202.331 36.04C206.854 36.04 210.952 36.8174 214.627 38.372C218.443 39.7854 221.623 41.976 224.167 44.944C226.852 47.7707 228.831 51.2334 230.103 55.332C231.516 59.4307 232.223 64.024 232.223 69.112C232.223 75.896 232.223 82.7507 232.223 89.676C232.223 96.6014 232.223 103.527 232.223 110.452C232.223 117.377 232.223 124.373 232.223 131.44C232.223 134.973 232.223 138.507 232.223 142.04C232.223 145.573 232.223 149.107 232.223 152.64ZM163.959 152.64C160.85 152.64 157.882 152.64 155.055 152.64C152.37 152.64 149.543 152.64 146.575 152.64C143.748 152.64 140.78 152.64 137.671 152.64C137.247 152.64 136.894 152.64 136.611 152.64C136.328 152.499 136.046 152.357 135.763 152.216C135.622 151.933 135.48 151.651 135.339 151.368C135.339 151.085 135.339 150.732 135.339 150.308C135.339 142.676 135.339 135.115 135.339 127.624C135.339 119.992 135.339 112.431 135.339 104.94C135.339 97.308 135.339 89.7467 135.339 82.256C135.339 74.624 135.339 66.992 135.339 59.36C135.339 55.4027 135.339 51.6574 135.339 48.124C135.339 44.5907 135.339 41.4107 135.339 38.584C138.872 38.584 142.052 38.584 144.879 38.584C147.847 38.584 150.674 38.584 153.359 38.584C156.186 38.584 158.942 38.584 161.627 38.584C162.192 38.584 162.616 38.7254 162.899 39.008C163.182 39.1494 163.394 39.3614 163.535 39.644C163.818 39.9267 163.959 40.3507 163.959 40.916C163.959 53.212 163.959 65.5787 163.959 78.016C163.959 90.4534 163.959 102.891 163.959 115.328C163.959 127.765 163.959 140.203 163.959 152.64Z" fill="white"/>
<path d="M56.604 0C67.204 0 76.744 2.26133 85.224 6.784C93.8453 11.1653 100.629 17.7373 105.576 26.5C110.664 35.2627 113.208 46.216 113.208 59.36V99.852C113.208 112.007 110.735 122.324 105.788 130.804C100.841 139.284 94.128 145.785 85.648 150.308C77.168 154.689 67.4867 156.88 56.604 156.88C46.004 156.88 36.3933 154.689 27.772 150.308C19.292 145.785 12.508 139.284 7.42 130.804C2.47333 122.324 0 112.007 0 99.852V59.36C0 46.216 2.61467 35.2627 7.844 26.5C13.0733 17.7373 19.9987 11.1653 28.62 6.784C37.3827 2.26133 46.7107 0 56.604 0ZM28.62 97.944C28.62 106 29.6093 112.007 31.588 115.964C33.5667 119.921 35.616 122.819 37.736 124.656C39.856 126.352 42.5413 127.765 45.792 128.896C49.184 130.027 53.0707 130.592 57.452 130.592C62.8227 130.592 67.4867 129.391 71.444 126.988C75.4013 124.585 78.5813 120.911 80.984 115.964C83.3867 111.017 84.588 104.94 84.588 97.732V57.028C84.588 52.5053 84.3053 48.76 83.74 45.792C83.1747 42.6827 82.3267 40.068 81.196 37.948C80.0653 35.828 78.652 33.9907 76.956 32.436C74.836 30.316 72.1507 28.6907 68.9 27.56C65.6493 26.4293 61.692 25.864 57.028 25.864C50.5267 25.864 45.156 27.136 40.916 29.68C36.8173 32.224 33.708 35.828 31.588 40.492C29.6093 45.156 28.62 50.668 28.62 57.028V97.944Z" fill="white"/>
<rect y="183.64" width="352" height="17" rx="1" fill="#00ECEA"/>
</svg>
