<svg viewBox="0 0 1000 500" xmlns="http://www.w3.org/2000/svg">
<rect width="1000" height="500" fill="#A71212"/>
<g transform="translate(100, 60)" fill="#FFFFFF">
<path d="M94.814 254.25H79.6808V53.7811H0V39H94.814V254.25Z"/>
<path d="M139.637 254.25V101.512H124.504V254.25H139.637Z"/>
<path d="M124.318 284.684C124.413 301.443 138.071 315 154.905 315C171.797 315 185.492 301.349 185.492 284.509C185.492 284.301 185.49 284.094 185.485 283.887V101.82H170.661V258.369C170.657 258.366 170.653 258.364 170.648 258.361V284.684H170.625C170.515 293.226 163.534 300.116 154.94 300.116C146.346 300.116 139.365 293.226 139.255 284.684H124.318Z"/>
<path d="M120.18 52.5493C120.18 68.5622 144.579 68.5622 144.579 52.5493C144.579 36.5365 120.18 36.5365 120.18 52.5493Z"/>
<path d="M165.72 51.0096C165.72 67.0225 190.118 67.0225 190.118 51.0096C190.118 34.9968 165.72 34.9968 165.72 51.0096Z"/>
<path fill-rule="evenodd" clip-rule="evenodd" d="M342.81 135.385V102.128H357.944V254.25H342.81V221.916C327.986 245.627 305.132 256.713 280.425 256.713C237.805 256.713 202.906 224.688 202.906 178.189C202.906 131.69 237.805 100.28 280.425 100.28C305.132 100.28 330.148 111.674 342.81 135.385ZM280.425 241.932C365.356 241.932 365.356 114.753 280.425 114.753C245.834 114.753 218.039 140.004 218.039 178.189C218.039 216.373 245.834 241.932 280.425 241.932Z"/>
<path d="M624.905 254.25V163.1C624.905 125.223 598.344 99.0482 560.975 99.0482C537.503 99.0482 513.722 111.674 504.457 136.617C495.501 109.518 471.102 99.0482 447.939 99.0482C428.173 99.0482 408.716 107.363 398.216 127.379L397.907 102.128H383.7V254.25H398.833V164.023C398.833 134.769 418.599 113.521 447.63 113.521C476.661 113.521 496.736 134.769 496.736 164.023V254.25H511.869V164.023C511.869 134.769 531.944 113.213 560.975 113.213C590.006 113.213 609.772 133.845 609.772 163.1V254.25H624.905Z"/>
<path fill-rule="evenodd" clip-rule="evenodd" d="M800 178.497C800 226.843 765.41 256.405 722.481 256.405C679.553 256.405 644.962 226.843 644.962 178.497C644.962 130.15 679.553 99.3561 722.481 99.3561C765.41 99.3561 800 130.15 800 178.497ZM659.787 178.497C659.787 217.913 687.891 241.624 722.481 241.624C757.071 241.624 785.176 217.913 785.176 178.497C785.176 139.08 757.071 113.521 722.481 113.521C687.891 113.521 659.787 139.08 659.787 178.497Z"/>
</g>
</svg>
