<svg width="800" height="380" viewBox="0 0 800 380" fill="none" xmlns="http://www.w3.org/2000/svg">
<rect width="800" height="380" fill="#A71212"/>
<path d="M124.451 260.193H110.812V79.3351H39V66H124.451V260.193Z" fill="white"/>
<path d="M164.848 260.193V122.396H151.209V260.193H164.848Z" fill="white"/>
<path d="M151.042 287.65C151.127 302.77 163.436 315 178.608 315C193.832 315 206.174 302.684 206.174 287.492C206.174 287.304 206.172 287.117 206.169 286.931V122.674H192.808V263.909C192.805 263.907 192.801 263.904 192.797 263.902V287.65H192.776C192.676 295.356 186.385 301.572 178.64 301.572C170.894 301.572 164.603 295.356 164.503 287.65H151.042Z" fill="white"/>
<path d="M147.313 78.2239C147.313 92.6702 169.302 92.6702 169.302 78.2239C169.302 63.7775 147.313 63.7775 147.313 78.2239Z" fill="white"/>
<path d="M188.355 76.8348C188.355 91.2812 210.344 91.2812 210.344 76.8348C210.344 62.3884 188.355 62.3884 188.355 76.8348Z" fill="white"/>
<path fill-rule="evenodd" clip-rule="evenodd" d="M347.958 152.956V122.952H361.597V260.193H347.958V231.022C334.597 252.414 314 262.415 291.733 262.415C253.321 262.415 221.869 233.522 221.869 191.572C221.869 149.622 253.321 121.285 291.733 121.285C314 121.285 336.546 131.564 347.958 152.956ZM291.733 249.08C368.277 249.08 368.277 134.343 291.733 134.343C260.558 134.343 235.508 157.123 235.508 191.572C235.508 226.021 260.558 249.08 291.733 249.08Z" fill="white"/>
<path d="M602.195 260.193V177.959C602.195 143.788 578.258 120.174 544.578 120.174C523.424 120.174 501.992 131.564 493.642 154.067C485.57 129.62 463.581 120.174 442.705 120.174C424.891 120.174 407.356 127.675 397.892 145.733L397.614 122.952H384.81V260.193H398.449V178.793C398.449 152.4 416.263 133.231 442.427 133.231C468.591 133.231 486.683 152.4 486.683 178.793V260.193H500.322V178.793C500.322 152.4 518.414 132.953 544.578 132.953C570.743 132.953 588.557 151.567 588.557 177.959V260.193H602.195Z" fill="white"/>
<path fill-rule="evenodd" clip-rule="evenodd" d="M760 191.85C760 235.467 728.826 262.137 690.136 262.137C651.447 262.137 620.272 235.467 620.272 191.85C620.272 148.233 651.447 120.452 690.136 120.452C728.826 120.452 760 148.233 760 191.85ZM633.633 191.85C633.633 227.411 658.962 248.802 690.136 248.802C721.311 248.802 746.64 227.411 746.64 191.85C746.64 156.29 721.311 133.231 690.136 133.231C658.962 133.231 633.633 156.29 633.633 191.85Z" fill="white"/>
</svg>
